# Wavefront OBJ - head.obj
v -0.2400 0.0000 0.2400
v 0.2400 0.0000 0.2400
v 0.2400 0.5200 0.2400
v -0.2400 0.5200 0.2400
v -0.2400 0.0000 -0.2400
v 0.2400 0.0000 -0.2400
v 0.2400 0.5200 -0.2400
v -0.2400 0.5200 -0.2400
vt 0.5500 0.9500
vt 0.9500 0.9500
vt 0.9500 0.5500
vt 0.5500 0.5500
vt 0.5800 0.8500
vt 0.9200 0.8500
vt 0.9200 0.6500
vt 0.5800 0.6500
vn 0.0000 0.0000 1.0000
vn 0.0000 0.0000 -1.0000
vn 1.0000 0.0000 0.0000
vn -1.0000 0.0000 0.0000
vn 0.0000 1.0000 0.0000
vn 0.0000 -1.0000 0.0000
f 1/5/1 2/6/1 3/7/1
f 1/5/1 3/7/1 4/8/1
f 6/1/2 5/2/2 8/3/2
f 6/1/2 8/3/2 7/4/2
f 2/1/3 6/2/3 7/3/3
f 2/1/3 7/3/3 3/4/3
f 5/1/4 1/2/4 4/3/4
f 5/1/4 4/3/4 8/4/4
f 4/1/5 3/2/5 7/3/5
f 4/1/5 7/3/5 8/4/5
f 5/1/6 6/2/6 2/3/6
f 5/1/6 2/3/6 1/4/6
