# Wavefront OBJ - torso.obj
v -0.2800 0.0000 0.1800
v 0.2800 0.0000 0.1800
v 0.3800 0.8500 0.2200
v -0.3800 0.8500 0.2200
v -0.2800 0.0000 -0.1800
v 0.2800 0.0000 -0.1800
v 0.3800 0.8500 -0.2200
v -0.3800 0.8500 -0.2200
vt 0.0500 0.5500
vt 0.4500 0.5500
vt 0.4500 0.9500
vt 0.0500 0.9500
vt 0.1200 0.5800
vt 0.3800 0.5800
vt 0.3800 0.9000
vt 0.1200 0.9000
vn 0.0000 0.1000 0.9900
vn 0.0000 0.1000 -0.9900
vn 0.9900 0.1000 0.0000
vn -0.9900 0.1000 0.0000
vn 0.0000 1.0000 0.0000
vn 0.0000 -1.0000 0.0000
f 1/5/1 2/6/1 3/7/1
f 1/5/1 3/7/1 4/8/1
f 6/1/2 5/2/2 8/3/2
f 6/1/2 8/3/2 7/4/2
f 2/1/3 6/2/3 7/3/3
f 2/1/3 7/3/3 3/4/3
f 5/1/4 1/2/4 4/3/4
f 5/1/4 4/3/4 8/4/4
f 4/1/5 3/2/5 7/3/5
f 4/1/5 7/3/5 8/4/5
f 5/1/6 6/2/6 2/3/6
f 5/1/6 2/3/6 1/4/6
